<mxfile host="app.diagrams.net" modified="2021-05-12T06:42:54.883Z" agent="5.0 (Macintosh; Intel Mac OS X 10_15_5) AppleWebKit/537.36 (KHTML, like Gecko) Chrome/90.0.4430.93 Safari/537.36" etag="aq_vxazesGFheETBGJn2" version="14.6.12" type="github">
  <diagram id="xL5Nmr-esy2804ZCpAjE" name="第 1 页">
    <mxGraphModel dx="946" dy="590" grid="1" gridSize="10" guides="1" tooltips="1" connect="1" arrows="1" fold="1" page="1" pageScale="1" pageWidth="827" pageHeight="1169" math="0" shadow="0">
      <root>
        <mxCell id="0" />
        <mxCell id="1" parent="0" />
        <mxCell id="Aki6pbfYvo70P3W0XVMl-8" value="" style="edgeStyle=orthogonalEdgeStyle;rounded=0;orthogonalLoop=1;jettySize=auto;html=1;" parent="1" source="Aki6pbfYvo70P3W0XVMl-2" target="Aki6pbfYvo70P3W0XVMl-7" edge="1">
          <mxGeometry relative="1" as="geometry" />
        </mxCell>
        <mxCell id="Aki6pbfYvo70P3W0XVMl-2" value="填写入驻所需关键字段" style="rounded=0;whiteSpace=wrap;html=1;" parent="1" vertex="1">
          <mxGeometry x="190" y="180" width="180" height="50" as="geometry" />
        </mxCell>
        <mxCell id="Aki6pbfYvo70P3W0XVMl-3" value="&lt;h1&gt;商家入驻&lt;/h1&gt;&lt;div&gt;商家入驻, 审核, 退店等逻辑梳理&lt;/div&gt;" style="text;html=1;strokeColor=none;fillColor=none;spacing=5;spacingTop=-20;whiteSpace=wrap;overflow=hidden;rounded=0;" parent="1" vertex="1">
          <mxGeometry x="30" y="30" width="190" height="120" as="geometry" />
        </mxCell>
        <mxCell id="Aki6pbfYvo70P3W0XVMl-4" value="&lt;h1&gt;售后地址管理&lt;/h1&gt;&lt;div&gt;开店之后, 售后地址管理等设计&lt;/div&gt;" style="text;html=1;strokeColor=none;fillColor=none;spacing=5;spacingTop=-20;whiteSpace=wrap;overflow=hidden;rounded=0;" parent="1" vertex="1">
          <mxGeometry x="540" y="30" width="190" height="120" as="geometry" />
        </mxCell>
        <mxCell id="Aki6pbfYvo70P3W0XVMl-5" value="&lt;h1&gt;收货地址管理&lt;/h1&gt;&lt;div&gt;用户收货地址&lt;/div&gt;" style="text;html=1;strokeColor=none;fillColor=none;spacing=5;spacingTop=-20;whiteSpace=wrap;overflow=hidden;rounded=0;" parent="1" vertex="1">
          <mxGeometry x="1051" y="30" width="190" height="120" as="geometry" />
        </mxCell>
        <mxCell id="Aki6pbfYvo70P3W0XVMl-13" value="" style="edgeStyle=orthogonalEdgeStyle;rounded=0;orthogonalLoop=1;jettySize=auto;html=1;" parent="1" source="Aki6pbfYvo70P3W0XVMl-6" target="Aki6pbfYvo70P3W0XVMl-12" edge="1">
          <mxGeometry relative="1" as="geometry" />
        </mxCell>
        <mxCell id="Aki6pbfYvo70P3W0XVMl-6" value="用户中心地址管理" style="rounded=0;whiteSpace=wrap;html=1;" parent="1" vertex="1">
          <mxGeometry x="1250" y="90" width="120" height="60" as="geometry" />
        </mxCell>
        <mxCell id="6BUAvkDIqhAeu1q_IwZQ-4" value="" style="edgeStyle=orthogonalEdgeStyle;rounded=0;orthogonalLoop=1;jettySize=auto;html=1;" edge="1" parent="1" source="Aki6pbfYvo70P3W0XVMl-7" target="6BUAvkDIqhAeu1q_IwZQ-3">
          <mxGeometry relative="1" as="geometry" />
        </mxCell>
        <mxCell id="Aki6pbfYvo70P3W0XVMl-7" value="本地服务端校验" style="rounded=0;whiteSpace=wrap;html=1;" parent="1" vertex="1">
          <mxGeometry x="190" y="310" width="180" height="50" as="geometry" />
        </mxCell>
        <mxCell id="Aki6pbfYvo70P3W0XVMl-15" value="" style="edgeStyle=orthogonalEdgeStyle;rounded=0;orthogonalLoop=1;jettySize=auto;html=1;" parent="1" source="Aki6pbfYvo70P3W0XVMl-12" target="Aki6pbfYvo70P3W0XVMl-14" edge="1">
          <mxGeometry relative="1" as="geometry" />
        </mxCell>
        <mxCell id="Aki6pbfYvo70P3W0XVMl-12" value="用户收货地址列表" style="whiteSpace=wrap;html=1;rounded=0;" parent="1" vertex="1">
          <mxGeometry x="1250" y="230" width="120" height="60" as="geometry" />
        </mxCell>
        <mxCell id="Aki6pbfYvo70P3W0XVMl-14" value="地址详情" style="whiteSpace=wrap;html=1;rounded=0;direction=west;" parent="1" vertex="1">
          <mxGeometry x="1250" y="370" width="120" height="60" as="geometry" />
        </mxCell>
        <mxCell id="6BUAvkDIqhAeu1q_IwZQ-2" style="edgeStyle=orthogonalEdgeStyle;rounded=0;orthogonalLoop=1;jettySize=auto;html=1;exitX=0.5;exitY=0.5;exitDx=0;exitDy=0;exitPerimeter=0;" edge="1" parent="1" source="6BUAvkDIqhAeu1q_IwZQ-1" target="Aki6pbfYvo70P3W0XVMl-2">
          <mxGeometry relative="1" as="geometry" />
        </mxCell>
        <mxCell id="6BUAvkDIqhAeu1q_IwZQ-1" value="Actor" style="shape=umlActor;verticalLabelPosition=bottom;verticalAlign=top;html=1;outlineConnect=0;" vertex="1" parent="1">
          <mxGeometry x="50" y="175" width="30" height="60" as="geometry" />
        </mxCell>
        <mxCell id="6BUAvkDIqhAeu1q_IwZQ-5" style="edgeStyle=orthogonalEdgeStyle;rounded=0;orthogonalLoop=1;jettySize=auto;html=1;exitX=0;exitY=0.5;exitDx=0;exitDy=0;" edge="1" parent="1" source="6BUAvkDIqhAeu1q_IwZQ-3" target="6BUAvkDIqhAeu1q_IwZQ-1">
          <mxGeometry relative="1" as="geometry" />
        </mxCell>
        <mxCell id="6BUAvkDIqhAeu1q_IwZQ-6" value="否" style="edgeLabel;html=1;align=center;verticalAlign=middle;resizable=0;points=[];" vertex="1" connectable="0" parent="6BUAvkDIqhAeu1q_IwZQ-5">
          <mxGeometry x="-0.4173" y="2" relative="1" as="geometry">
            <mxPoint as="offset" />
          </mxGeometry>
        </mxCell>
        <mxCell id="6BUAvkDIqhAeu1q_IwZQ-13" value="" style="edgeStyle=orthogonalEdgeStyle;rounded=0;orthogonalLoop=1;jettySize=auto;html=1;" edge="1" parent="1" source="6BUAvkDIqhAeu1q_IwZQ-3" target="6BUAvkDIqhAeu1q_IwZQ-12">
          <mxGeometry relative="1" as="geometry" />
        </mxCell>
        <mxCell id="6BUAvkDIqhAeu1q_IwZQ-3" value="校验" style="rhombus;whiteSpace=wrap;html=1;rounded=0;" vertex="1" parent="1">
          <mxGeometry x="240" y="425" width="80" height="80" as="geometry" />
        </mxCell>
        <mxCell id="6BUAvkDIqhAeu1q_IwZQ-12" value="提交至易宝进一步校验" style="whiteSpace=wrap;html=1;rounded=0;" vertex="1" parent="1">
          <mxGeometry x="195" y="595" width="170" height="45" as="geometry" />
        </mxCell>
      </root>
    </mxGraphModel>
  </diagram>
</mxfile>
